<?xml version="1.0" encoding="utf-8"?>
<!-- Generator: Adobe Illustrator 16.0.0, SVG Export Plug-In . SVG Version: 6.00 Build 0)  -->
<!DOCTYPE svg PUBLIC "-//W3C//DTD SVG 1.1//EN" "http://www.w3.org/Graphics/SVG/1.1/DTD/svg11.dtd">
<svg version="1.1" id="Layer_1" xmlns="http://www.w3.org/2000/svg" xmlns:xlink="http://www.w3.org/1999/xlink" x="0px" y="0px"
	 width="100px" height="65px" viewBox="0 0 100 65" enable-background="new 0 0 100 65" xml:space="preserve">
<rect fill="#FFFFFF" width="100" height="65"/>
<g transform="translate(.0027368 .0019119)">
	<path fill="#3863C2" d="M65.086,39.538c0.147-0.554,0.239-1.104,0.272-1.654c0.031-0.55,0.012-1.099-0.063-1.632
		c-0.149-1.066-0.494-2.094-1.024-3.014c-0.529-0.919-1.242-1.744-2.094-2.406c-0.425-0.332-0.889-0.611-1.381-0.858
		c-0.492-0.246-1.018-0.458-1.568-0.606c-0.556-0.148-1.104-0.239-1.654-0.271c-0.549-0.033-1.098-0.011-1.631,0.063
		c-1.067,0.148-2.095,0.515-3.014,1.046c-0.703,0.415-1.335,1.016-1.926,1.695c-0.589,0.679-1.139,1.43-1.694,2.133
		c-0.75,0.752-1.645,1.359-2.637,1.779c-0.496,0.209-1.007,0.371-1.547,0.48c-0.54,0.109-1.104,0.167-1.674,0.167
		c-0.575,0-1.134-0.058-1.674-0.167s-1.072-0.271-1.57-0.48c-0.992-0.42-1.884-1.027-2.635-1.779s-1.36-1.643-1.781-2.636
		c-0.208-0.496-0.37-1.008-0.479-1.548c-0.111-0.54-0.169-1.102-0.169-1.674c0-0.573,0.058-1.134,0.169-1.674
		c0.015-0.079,0.042-0.152,0.061-0.23c-0.87,1.995-1.36,4.191-1.36,6.508c0,8.997,7.305,16.282,16.302,16.282
		c4.874,0,9.193-2.177,12.176-5.566c1.043-1.184,1.932-2.487,2.596-3.936C65.088,39.553,65.084,39.543,65.086,39.538L65.086,39.538z
		"/>
	<path fill="#E7253A" d="M50.316,16.479c-6.682,0-12.428,4.039-14.94,9.793c-0.019,0.078-0.046,0.151-0.063,0.23
		c-0.109,0.54-0.167,1.101-0.167,1.674c0,0.573,0.058,1.134,0.167,1.674c0.111,0.541,0.271,1.052,0.48,1.548
		c0.421,0.993,1.028,1.885,1.779,2.637c0.75,0.751,1.645,1.359,2.637,1.777c0.496,0.211,1.028,0.371,1.57,0.481
		c0.54,0.11,1.1,0.168,1.674,0.168c0.571,0,1.134-0.058,1.674-0.168s1.049-0.271,1.547-0.481c0.992-0.418,1.884-1.026,2.635-1.777
		c0.556-0.704,1.107-1.456,1.696-2.134c0.588-0.679,1.223-1.28,1.924-1.695c0.921-0.531,1.945-0.897,3.016-1.046
		c0.531-0.074,1.082-0.096,1.631-0.063c0.552,0.033,1.1,0.124,1.654,0.272c0.553,0.148,1.076,0.36,1.568,0.607
		c0.492,0.246,0.956,0.526,1.381,0.857c0.852,0.663,1.563,1.487,2.092,2.405c0.532,0.922,0.877,1.947,1.026,3.015
		c0.071,0.534,0.096,1.082,0.062,1.633c-0.031,0.55-0.123,1.101-0.271,1.653c0.947-2.064,1.508-4.34,1.508-6.759
		c0-8.998-7.283-16.301-16.282-16.301H50.316z"/>
	<g transform="matrix(.83421 -.55145 -.55145 -.83421 120.5 220.79)">
		<path d="M18.076,187.06l0.001,16.259l2.615,0l-0.001-16.258L18.076,187.06L18.076,187.06z"/>
		<path d="M16.611,195.927l-2.616-0.002l0,7.388l2.617-0.001L16.611,195.927z"/>
		<path d="M13.996,187.053l-0.002,7.366l2.619,0.002l0-7.366L13.996,187.053z"/>
		<path d="M9.914,187.061l0.002,16.259l2.615-0.001l0.002-16.258L9.914,187.061z"/>
	</g>
	<g transform="matrix(-.83421 .55145 .55145 .83421 72.924 -4.8007)">
		<path d="M15.29,19.29l-2.613-0.001l-0.002,7.388l2.617-0.001L15.29,19.29z"/>
		<path d="M12.675,10.418l0,7.366l2.615,0l-0.001-7.365L12.675,10.418z"/>
		<path d="M8.595,10.424l0,16.258l2.614,0.001l0.003-16.26L8.595,10.424z"/>
		<path d="M7.13,19.29l-2.617,0.001l-0.001,7.385l2.615,0L7.13,19.29z"/>
		<path d="M4.515,10.416l-0.002,7.368l2.617-0.001l-0.001-7.365L4.515,10.416z"/>
	</g>
	<g transform="matrix(-.83421 -.55145 .55145 -.83421 16.888 276.94)">
		<path d="M82.406,222.44l-2.614,0l-0.002,7.386l2.616,0.002L82.406,222.44z"/>
		<path d="M79.79,213.569l0.001,7.365l2.614-0.001l0.001-7.366L79.79,213.569z"/>
		<path d="M78.326,222.44l-2.616,0.002l0,7.384l2.615,0.002L78.326,222.44z"/>
		<path d="M75.709,213.566l-0.001,7.366l2.618,0.001l-0.001-7.364L75.709,213.566z"/>
		<path d="M74.244,222.44l-2.615,0.002l0.001,7.386l2.615-0.003L74.244,222.44z"/>
		<path d="M71.631,213.569l0,7.365l2.615-0.001l0-7.368L71.631,213.569z"/>
	</g>
	<g transform="matrix(.83421 .55145 -.55145 .83421 141.53 -65.246)">
		<rect x="-49.033" y="123.674" width="2.622" height="16.26"/>
		<rect x="-53.115" y="123.673" width="2.621" height="16.26"/>
		<rect x="-57.198" y="123.674" width="2.622" height="16.259"/>
	</g>
</g>
</svg>
