<?xml version="1.0" encoding="utf-8"?>
<!-- Generator: Adobe Illustrator 16.0.0, SVG Export Plug-In . SVG Version: 6.00 Build 0)  -->
<!DOCTYPE svg PUBLIC "-//W3C//DTD SVG 1.1//EN" "http://www.w3.org/Graphics/SVG/1.1/DTD/svg11.dtd">
<svg version="1.1" id="Layer_1" xmlns="http://www.w3.org/2000/svg" xmlns:xlink="http://www.w3.org/1999/xlink" x="0px" y="0px"
	 width="100px" height="65px" viewBox="0 0 100 65" enable-background="new 0 0 100 65" xml:space="preserve">
<rect fill="#FE0000" width="100" height="65"/>
<path fill="#FCFB00" d="M10.486,24.219c0.227-0.939,0.546-1.84,0.916-2.738c0.509-1.236,0.86-2.538,1.273-3.813
	c0.099-0.304-0.179-0.386-0.348-0.498c-1.644-1.088-3.231-2.256-4.825-3.415c-0.193-0.14-0.38-0.286-0.698-0.526
	c1.214,0,2.28,0,3.346,0c1.14,0,2.281-0.021,3.42,0.011c0.417,0.011,0.596-0.113,0.722-0.517c0.537-1.727,1.118-3.439,1.671-5.161
	c0.115-0.357,0.245-0.696,0.549-1.013c0.645,1.977,1.308,3.913,1.895,5.871c0.188,0.629,0.452,0.842,1.121,0.827
	c2.09-0.05,4.183-0.019,6.308-0.019c-0.051,0.248-0.238,0.309-0.374,0.405c-1.638,1.167-3.214,2.422-4.926,3.483
	c-0.374,0.232-0.437,0.459-0.304,0.891c0.573,1.878,1.417,3.66,1.938,5.555c0.052,0.191,0.182,0.368,0.126,0.614
	c-1.196-0.744-2.333-1.543-3.452-2.372c-0.605-0.448-1.248-0.85-1.817-1.339c-0.471-0.405-0.82-0.319-1.27,0.021
	c-1.234,0.932-2.492,1.832-3.75,2.73C11.513,23.571,10.993,23.887,10.486,24.219L10.486,24.219z"/>
<path fill="#FCFB00" d="M40.073,19.707c0.324,0.648,0.417,1.317,0.802,1.886c0.175,0.258,0.33,0.304,0.581,0.292
	c0.603-0.03,1.206-0.057,1.937-0.09c-0.582,0.457-1.057,0.861-1.564,1.217c-0.273,0.192-0.293,0.374-0.179,0.656
	c0.218,0.542,0.407,1.097,0.642,1.741c-0.668-0.296-1.143-0.728-1.7-1.021c-0.325-0.171-0.487-0.11-0.737,0.074
	c-0.46,0.339-0.851,0.789-1.388,1.001c-0.128-0.148-0.013-0.193,0.01-0.255c0.663-1.771,0.664-1.77-0.892-2.811
	c-0.147-0.099-0.292-0.201-0.408-0.435c0.544,0,1.088-0.017,1.631,0.005c0.455,0.019,0.693-0.135,0.785-0.614
	C39.697,20.806,39.901,20.277,40.073,19.707z"/>
<path fill="#FCFB00" d="M38.772,10.183c0.456,0.43,0.911,0.827,1.325,1.264c0.218,0.231,0.419,0.274,0.688,0.147
	c0.586-0.276,1.174-0.549,1.856-0.868c-0.317,0.604-0.574,1.142-0.877,1.653c-0.191,0.321-0.161,0.543,0.122,0.779
	c0.448,0.374,0.878,0.77,1.315,1.156c-0.045,0.054-0.091,0.108-0.136,0.163c-0.617-0.1-1.239-0.176-1.849-0.31
	c-0.375-0.082-0.557,0.043-0.711,0.369c-0.239,0.503-0.52,0.986-0.871,1.641c-0.121-0.786-0.231-1.376-0.293-1.97
	c-0.029-0.281-0.146-0.375-0.406-0.416c-0.622-0.097-1.24-0.22-1.965-0.351c0.617-0.306,1.138-0.585,1.676-0.823
	c0.327-0.144,0.458-0.308,0.375-0.69C38.899,11.357,38.853,10.771,38.772,10.183z"/>
<path fill="#FCFB00" d="M34.554,26.539c-0.018,0.629-0.014,1.261-0.062,1.888c-0.025,0.319,0.062,0.485,0.37,0.584
	c0.617,0.198,1.223,0.428,1.882,0.661c-0.626,0.29-1.279,0.346-1.895,0.527c-0.321,0.095-0.465,0.226-0.465,0.58
	c-0.001,0.588-0.061,1.176-0.104,1.896c-0.393-0.59-0.747-1.083-1.057-1.603c-0.168-0.281-0.354-0.333-0.65-0.246
	c-0.602,0.178-1.21,0.331-1.986,0.54c0.429-0.494,0.716-0.89,1.069-1.215c0.506-0.466,0.488-0.884,0.052-1.38
	c-0.314-0.357-0.473-0.833-0.86-1.154c0.637,0.056,1.189,0.32,1.743,0.55c0.398,0.166,0.619,0.088,0.858-0.249
	C33.791,27.439,34.184,26.998,34.554,26.539L34.554,26.539z"/>
<path fill="#FCFB00" d="M30.649,7.971c0.287-0.542,0.833-0.849,1.199-1.325c0.229-0.298,0.313-0.503,0.08-0.837
	c-0.323-0.463-0.59-0.966-0.96-1.585c0.672,0.28,1.232,0.496,1.775,0.748c0.285,0.133,0.47,0.111,0.675-0.145
	c0.365-0.456,0.766-0.882,1.272-1.458c-0.058,0.756-0.087,1.349-0.155,1.938c-0.036,0.319,0.077,0.477,0.372,0.583
	c0.601,0.218,1.19,0.466,1.905,0.75c-0.761,0.166-1.381,0.321-2.008,0.429c-0.348,0.06-0.473,0.224-0.489,0.563
	c-0.028,0.587-0.093,1.173-0.153,1.894c-0.372-0.613-0.7-1.116-0.985-1.643c-0.166-0.306-0.355-0.369-0.685-0.288
	c-0.609,0.15-1.212,0.344-1.846,0.373L30.649,7.971z"/>
<path fill="#FCFB00" d="M30.646,7.968c-0.017,0.001-0.035-0.001-0.05,0.005c-0.008,0.004-0.01,0.021-0.015,0.033
	c0.023-0.012,0.046-0.024,0.069-0.036L30.646,7.968z"/>
<polygon fill="#FCFB00" points="10.485,24.219 10.47,24.234 10.486,24.219 "/>
</svg>
