<?xml version="1.0" encoding="utf-8"?>
<!-- Generator: Adobe Illustrator 16.0.0, SVG Export Plug-In . SVG Version: 6.00 Build 0)  -->
<!DOCTYPE svg PUBLIC "-//W3C//DTD SVG 1.1//EN" "http://www.w3.org/Graphics/SVG/1.1/DTD/svg11.dtd">
<svg version="1.1" id="Layer_1" xmlns="http://www.w3.org/2000/svg" xmlns:xlink="http://www.w3.org/1999/xlink" x="0px" y="0px"
	 width="100px" height="65px" viewBox="0 0 100 65" enable-background="new 0 0 100 65" xml:space="preserve">
<path fill="#BF0A30" d="M0,65h100V0H0V65z"/>
<g>
	<path fill="#FFFFFF" d="M0,60.667h100v-4.334H0V60.667z M0,52.002h100v-4.333H0V52.002z M0,43.334h100V39H0V43.334z M0,34.667h100
		v-4.333H0V34.667z M0,26h100v-4.333H0V26z M0,17.334h100v-4.333H0V17.334z M0,8.667h100V4.334H0V8.667z"/>
</g>
<path fill="#002868" d="M0,34.664h43.333V0H0V34.664z"/>
<g>
	<path fill="#FFFFFF" d="M25.278,10.234l0.453,1.392h1.464l-1.185,0.86l0.452,1.393l-1.185-0.861l-1.184,0.861l0.452-1.393
		l-1.184-0.86h1.464L25.278,10.234z M25.278,20.785l0.453,1.392h1.464l-1.185,0.86l0.452,1.393l-1.185-0.86l-1.184,0.86l0.452-1.393
		l-1.184-0.86h1.464L25.278,20.785z M39.723,10.234l0.452,1.392h1.464l-1.184,0.86l0.452,1.393l-1.184-0.861l-1.185,0.861
		l0.453-1.393l-1.185-0.86h1.464L39.723,10.234z M39.723,20.785l0.452,1.392h1.464l-1.184,0.86l0.452,1.393l-1.184-0.86l-1.185,0.86
		l0.453-1.393l-1.185-0.86h1.464L39.723,20.785z"/>
	<path fill="#FFFFFF" d="M39.723,10.234l0.452,1.392h1.464l-1.184,0.86l0.452,1.393l-1.184-0.861l-1.185,0.861l0.453-1.393
		l-1.185-0.86h1.464L39.723,10.234z M39.723,20.785l0.452,1.392h1.464l-1.184,0.86l0.452,1.393l-1.184-0.86l-1.185,0.86l0.453-1.393
		l-1.185-0.86h1.464L39.723,20.785z M10.833,10.234l0.453,1.392h1.464l-1.185,0.86l0.453,1.393l-1.185-0.861L9.649,13.88
		l0.452-1.393l-1.185-0.86h1.464L10.833,10.234z M10.833,20.785l0.453,1.392h1.464l-1.185,0.86l0.453,1.393l-1.185-0.86l-1.184,0.86
		l0.452-1.393l-1.185-0.86h1.464L10.833,20.785z M32.5,4.959l0.452,1.392h1.464l-1.184,0.86l0.452,1.393L32.5,7.744l-1.185,0.861
		l0.452-1.393l-1.184-0.86h1.464L32.5,4.959z M32.5,15.51l0.452,1.392h1.464l-1.184,0.861l0.452,1.393L32.5,18.294l-1.185,0.861
		l0.452-1.393l-1.184-0.861h1.464L32.5,15.51z M32.5,26.06l0.452,1.392h1.464l-1.184,0.86l0.452,1.393L32.5,28.844l-1.185,0.861
		l0.452-1.393l-1.184-0.86h1.464L32.5,26.06z M18.056,4.959l0.453,1.392h1.464l-1.184,0.86l0.452,1.393l-1.184-0.861l-1.184,0.861
		l0.452-1.393l-1.184-0.86h1.464L18.056,4.959z M18.056,15.51l0.453,1.392h1.464l-1.184,0.861l0.452,1.393l-1.184-0.861
		l-1.184,0.861l0.452-1.393l-1.184-0.861h1.464L18.056,15.51z M18.056,26.06l0.453,1.392h1.464l-1.184,0.86l0.452,1.393
		l-1.184-0.861l-1.184,0.861l0.452-1.393l-1.184-0.86h1.464L18.056,26.06z M3.611,4.959l0.453,1.392h1.464l-1.184,0.86l0.452,1.393
		l-1.185-0.86L2.427,8.605L2.88,7.212l-1.185-0.86h1.464L3.611,4.959z M3.611,15.51l0.453,1.392h1.464l-1.184,0.861l0.452,1.393
		l-1.185-0.861l-1.185,0.861l0.453-1.393l-1.185-0.861h1.464L3.611,15.51z M3.611,26.06l0.453,1.392h1.464l-1.184,0.86l0.452,1.393
		l-1.185-0.861l-1.185,0.861l0.453-1.393l-1.185-0.86h1.464L3.611,26.06z"/>
</g>
</svg>
