<?xml version="1.0" encoding="utf-8"?>
<!-- Generator: Adobe Illustrator 16.0.0, SVG Export Plug-In . SVG Version: 6.00 Build 0)  -->
<!DOCTYPE svg PUBLIC "-//W3C//DTD SVG 1.1//EN" "http://www.w3.org/Graphics/SVG/1.1/DTD/svg11.dtd">
<svg version="1.1" id="Layer_1" xmlns="http://www.w3.org/2000/svg" xmlns:xlink="http://www.w3.org/1999/xlink" x="0px" y="0px"
	 width="30px" height="30px" viewBox="0 0 30 30" enable-background="new 0 0 30 30" xml:space="preserve">
<path fill="#361656" d="M20.018,2.885V2.879h1.399l0.511,0.102c0.341,0.067,0.649,0.154,0.927,0.261
	c0.278,0.108,0.547,0.233,0.808,0.377c0.26,0.143,0.496,0.289,0.708,0.438c0.209,0.147,0.397,0.303,0.564,0.468
	c0.164,0.167,0.423,0.21,0.772,0.129s0.727-0.193,1.13-0.336c0.403-0.144,0.802-0.305,1.197-0.485
	c0.394-0.179,0.634-0.293,0.721-0.342c0.084-0.05,0.129-0.077,0.135-0.081l0.005-0.008l0.027-0.013l0.027-0.014l0.026-0.013
	l0.027-0.013l0.005-0.009l0.009-0.005l0.009-0.005l0.005-0.008l0.027-0.008l0.026-0.006L29.079,3.35l-0.008,0.04L29.058,3.43
	l-0.014,0.04l-0.013,0.027l-0.014,0.027l-0.014,0.04c-0.009,0.027-0.018,0.063-0.027,0.108c-0.009,0.045-0.093,0.224-0.255,0.538
	c-0.161,0.313-0.363,0.632-0.605,0.955c-0.242,0.322-0.46,0.566-0.651,0.731c-0.193,0.167-0.321,0.283-0.385,0.351
	c-0.062,0.068-0.139,0.13-0.229,0.188l-0.135,0.089l-0.027,0.014l-0.025,0.013l-0.007,0.008l-0.008,0.006L26.641,6.57l-0.006,0.008
	l-0.026,0.013l-0.027,0.013l-0.006,0.008l-0.008,0.005L26.56,6.624l-0.006,0.008l-0.006,0.008L26.54,6.646l-0.009,0.006L26.526,6.66
	h0.136l0.752-0.161c0.502-0.108,0.982-0.238,1.439-0.391s0.699-0.233,0.727-0.242c0.027-0.01,0.054-0.018,0.08-0.027l0.04-0.014
	l0.028-0.012L29.756,5.8l0.026-0.013l0.027-0.013l0.053-0.008l0.055-0.006v0.055l-0.014,0.005L29.89,5.826l-0.006,0.009L29.876,5.84
	l-0.009,0.005l-0.005,0.008l-0.006,0.009l-0.009,0.005L29.84,5.874l-0.006,0.009l-0.005,0.008l-0.008,0.005l-0.014,0.027
	L29.795,5.95l-0.009,0.005c-0.003,0.006-0.117,0.158-0.342,0.458C29.22,6.714,29.1,6.866,29.081,6.87
	c-0.018,0.005-0.043,0.032-0.075,0.081c-0.03,0.05-0.221,0.25-0.57,0.6c-0.35,0.35-0.692,0.661-1.027,0.934
	c-0.337,0.275-0.508,0.611-0.511,1.012c-0.005,0.398-0.026,0.848-0.062,1.35s-0.104,1.045-0.202,1.628
	c-0.098,0.583-0.251,1.242-0.457,1.977s-0.457,1.453-0.753,2.152s-0.605,1.327-0.929,1.883c-0.322,0.557-0.619,1.026-0.888,1.412
	s-0.542,0.749-0.819,1.09c-0.279,0.341-0.63,0.725-1.055,1.15c-0.427,0.426-0.66,0.659-0.699,0.699
	c-0.041,0.041-0.218,0.188-0.527,0.442c-0.309,0.256-0.641,0.513-0.996,0.769c-0.354,0.256-0.678,0.468-0.974,0.639
	c-0.296,0.17-0.652,0.364-1.07,0.584c-0.417,0.22-0.866,0.424-1.351,0.613c-0.485,0.188-0.996,0.362-1.533,0.523
	c-0.538,0.162-1.059,0.287-1.561,0.377c-0.502,0.09-1.071,0.166-1.708,0.229l-0.955,0.094v0.014H8.61v-0.014l-0.229-0.014
	c-0.152-0.009-0.278-0.018-0.376-0.027s-0.471-0.058-1.117-0.147c-0.645-0.09-1.151-0.18-1.519-0.269
	c-0.368-0.091-0.915-0.261-1.642-0.512s-1.347-0.505-1.864-0.761c-0.514-0.256-0.838-0.417-0.968-0.484
	c-0.13-0.066-0.275-0.148-0.436-0.248l-0.243-0.147l-0.005-0.009l-0.009-0.005l-0.008-0.006l-0.005-0.008l-0.027-0.014l-0.028-0.014
	l-0.005-0.008L0.122,24.43l-0.008-0.006l-0.006-0.008l-0.005-0.009l-0.008-0.006h-0.01V24.35l0.027,0.005l0.026,0.008l0.122,0.014
	c0.08,0.009,0.301,0.021,0.659,0.04c0.358,0.018,0.74,0.018,1.143,0c0.404-0.019,0.816-0.058,1.238-0.121s0.919-0.17,1.493-0.322
	s1.101-0.334,1.582-0.544c0.479-0.212,0.819-0.369,1.023-0.474c0.2-0.102,0.507-0.293,0.919-0.569l0.619-0.418l0.005-0.009
	l0.009-0.005l0.008-0.006l0.005-0.007l0.006-0.009l0.008-0.005l0.008-0.006l0.006-0.008l0.027-0.009L9.044,21.9l0.005-0.028
	l0.009-0.026l0.007-0.006l0.006-0.009l-0.215-0.013c-0.144-0.01-0.282-0.019-0.417-0.027c-0.135-0.009-0.346-0.049-0.632-0.12
	c-0.287-0.073-0.596-0.18-0.928-0.322c-0.332-0.144-0.654-0.314-0.968-0.512S5.37,20.476,5.23,20.346
	c-0.138-0.131-0.317-0.313-0.539-0.55c-0.218-0.238-0.408-0.483-0.569-0.734c-0.161-0.252-0.316-0.541-0.463-0.869l-0.222-0.489
	l-0.014-0.041l-0.014-0.04l-0.008-0.027l-0.005-0.026l0.041,0.005l0.039,0.008l0.297,0.041c0.197,0.026,0.506,0.036,0.928,0.026
	c0.422-0.009,0.713-0.026,0.875-0.053s0.259-0.045,0.296-0.054l0.053-0.013l0.068-0.014l0.067-0.014l0.005-0.008l0.008-0.006
	l0.008-0.006l0.005-0.008l-0.054-0.014l-0.053-0.013l-0.054-0.014l-0.053-0.014l-0.053-0.013c-0.036-0.01-0.099-0.027-0.189-0.054
	c-0.09-0.026-0.333-0.126-0.727-0.296c-0.395-0.171-0.708-0.337-0.941-0.498c-0.234-0.161-0.456-0.338-0.667-0.53
	c-0.21-0.193-0.441-0.442-0.692-0.747c-0.251-0.304-0.475-0.659-0.672-1.063c-0.198-0.404-0.346-0.789-0.445-1.157
	c-0.099-0.367-0.163-0.74-0.194-1.116l-0.048-0.566l0.026,0.006l0.027,0.008l0.028,0.013l0.027,0.014l0.027,0.013l0.027,0.013
	l0.417,0.189c0.278,0.125,0.624,0.232,1.036,0.322s0.658,0.139,0.739,0.148l0.121,0.014h0.242l-0.005-0.009l-0.008-0.005
	l-0.009-0.005l-0.005-0.009l-0.006-0.008L3.92,12.081l-0.009-0.006l-0.005-0.008L3.88,12.053L3.853,12.04l-0.005-0.008l-0.008-0.006
	l-0.008-0.005l-0.006-0.009l-0.027-0.013l-0.027-0.013l-0.006-0.008c-0.005-0.004-0.082-0.061-0.231-0.172
	c-0.147-0.113-0.301-0.259-0.462-0.438c-0.162-0.18-0.323-0.368-0.485-0.565c-0.161-0.197-0.305-0.408-0.43-0.632
	C2.031,9.945,1.897,9.66,1.758,9.313C1.62,8.97,1.516,8.622,1.443,8.272c-0.072-0.349-0.112-0.695-0.12-1.036
	c-0.01-0.341,0-0.631,0.027-0.874C1.376,6.12,1.43,5.847,1.511,5.542c0.081-0.305,0.196-0.628,0.35-0.968l0.228-0.511l0.013-0.041
	l0.013-0.04l0.009-0.005l0.005-0.008L2.135,3.96l0.008-0.006L2.151,3.96l0.005,0.009l0.005,0.008L2.17,3.982l0.009,0.005
	l0.005,0.009l0.005,0.008L2.198,4.01l0.013,0.027l0.014,0.027l0.007,0.005l0.006,0.008l0.362,0.404
	C2.843,4.75,3.13,5.051,3.462,5.383c0.332,0.331,0.516,0.503,0.551,0.516c0.036,0.014,0.08,0.056,0.135,0.124
	c0.054,0.066,0.233,0.225,0.538,0.476C4.991,6.75,5.39,7.042,5.884,7.374c0.492,0.331,1.04,0.658,1.641,0.981
	C8.125,8.678,8.771,8.97,9.461,9.23c0.691,0.26,1.175,0.431,1.453,0.511c0.279,0.081,0.754,0.184,1.426,0.309
	c0.673,0.126,1.18,0.207,1.521,0.242c0.341,0.036,0.573,0.057,0.699,0.063l0.189,0.005l-0.006-0.04l-0.008-0.04L14.68,9.942
	C14.645,9.719,14.627,9.405,14.627,9c0-0.403,0.031-0.775,0.093-1.116c0.063-0.341,0.157-0.687,0.283-1.036
	c0.125-0.35,0.249-0.63,0.369-0.841c0.122-0.21,0.281-0.45,0.479-0.719c0.197-0.269,0.454-0.547,0.767-0.834
	s0.672-0.542,1.076-0.766c0.402-0.225,0.774-0.395,1.115-0.511s0.629-0.193,0.86-0.229C19.902,2.913,20.018,2.891,20.018,2.885z"/>
</svg>
