<?xml version="1.0" encoding="utf-8"?>
<!-- Generator: Adobe Illustrator 16.0.0, SVG Export Plug-In . SVG Version: 6.00 Build 0)  -->
<!DOCTYPE svg PUBLIC "-//W3C//DTD SVG 1.1//EN" "http://www.w3.org/Graphics/SVG/1.1/DTD/svg11.dtd">
<svg version="1.1" id="Layer_1" xmlns="http://www.w3.org/2000/svg" xmlns:xlink="http://www.w3.org/1999/xlink" x="0px" y="0px"
	 width="30px" height="30px" viewBox="0 0 30 30" enable-background="new 0 0 30 30" xml:space="preserve">
<g>
	<circle fill="#361656" cx="15" cy="15.042" r="2.767"/>
	<path fill="#361656" d="M18.56,8.331h-7.118c-1.741,0-3.153,1.411-3.153,3.152v7.118c0,1.742,1.412,3.152,3.153,3.152h7.118
		c1.741,0,3.152-1.41,3.152-3.152v-7.118C21.712,9.74,20.301,8.331,18.56,8.331z M15,19.311c-2.358,0-4.269-1.911-4.269-4.269
		c0-2.358,1.911-4.27,4.269-4.27c2.359,0,4.269,1.912,4.27,4.27C19.271,17.398,17.359,19.311,15,19.311z M19.411,11.604
		c-0.549,0-0.994-0.445-0.994-0.994c0-0.55,0.445-0.995,0.994-0.995c0.55,0,0.994,0.445,0.994,0.995
		C20.405,11.159,19.961,11.604,19.411,11.604z"/>
	<path fill="#361656" d="M15,0.042C6.74,0.042,0.042,6.739,0.042,15S6.74,29.958,15,29.958S29.958,23.262,29.958,15
		C29.958,6.739,23.261,0.042,15,0.042z M23.227,18.477c0,2.624-2.126,4.75-4.749,4.75h-6.955c-2.622,0-4.749-2.126-4.749-4.75
		v-6.954c0-2.623,2.126-4.75,4.749-4.75h6.955c2.623,0,4.75,2.127,4.749,4.75V18.477z"/>
</g>
</svg>
