<?xml version="1.0" encoding="utf-8"?>
<!-- Generator: Adobe Illustrator 16.0.0, SVG Export Plug-In . SVG Version: 6.00 Build 0)  -->
<!DOCTYPE svg PUBLIC "-//W3C//DTD SVG 1.1//EN" "http://www.w3.org/Graphics/SVG/1.1/DTD/svg11.dtd">
<svg version="1.1" id="Layer_1" xmlns="http://www.w3.org/2000/svg" xmlns:xlink="http://www.w3.org/1999/xlink" x="0px" y="0px"
	 width="400px" height="400px" viewBox="0 0 400 400" enable-background="new 0 0 400 400" xml:space="preserve">
<path fill="#361656" d="M370.215,126.371c0.521-2.611,15.763-4.993,22.897-11.695c0,0-17.023,7.43-24.727,3.862
	C364.209,115.752,353.849,0,264.729,0c-83.64,0-140.296,65.454-146.944,73.5c-1.085-0.155-44.134,56.332-54.024,76.114
	c-9.892,19.782-19.528,39.41-28.901,58.882c-9.379,19.475-18.392,38.072-27.046,55.793c1.236-1.032,2.781-1.598,4.637-1.699
	c1.854-0.105,3.709-0.262,5.563-0.465c2.884-0.206,5.202-0.357,6.955-0.464c1.749-0.101,3.347-1.491,4.792-4.171
	c8.654-17.104,16.792-30.395,24.418-39.874c7.622-9.478,14.011-16.692,19.164-21.638c5.357-5.148,9.786-8.757,13.292-10.818
	c3.501-2.058,6.283-3.091,8.345-3.091c2.474,0,3.709,1.236,3.709,3.708c0,2.063-1.034,4.845-3.091,8.347
	c-4.535,7.625-8.245,13.961-11.127,19.011c-2.889,5.051-4.946,9.633-6.183,13.754c-1.034,3.299-1.752,6.235-2.163,8.81
	c-0.416,2.579-0.618,4.997-0.618,7.265c0,7.625,2.164,12.881,6.491,15.764c4.327,2.889,8.548,4.326,12.673,4.326
	c5.765,0,11.175-1.955,16.227-5.873c5.047-3.912,9.684-8.912,13.91-14.99c2.162-3.111,4.213-6.308,6.16-9.582
	c-0.082,1.205-0.133,2.396-0.133,3.555c0,7.833,1.646,14.172,4.945,19.01c3.293,4.846,7.621,7.264,12.982,7.264
	c2.884,0,6.076-0.819,9.583-2.472c3.501-1.647,7.21-4.327,11.127-8.036c4.53-4.326,8.755-9.322,12.672-14.994
	c3.913-5.664,7.109-10.453,9.583-14.371c-1.854,7.008-2.782,12.981-2.782,17.928c0,5.979,1.082,10.615,3.246,13.908
	c2.163,3.3,4.685,5.565,7.572,6.802c2.884,1.235,5.458,1.747,7.729,1.547c4.529-0.417,9.012-2.628,13.443-6.646
	c4.428-4.02,8.703-9.066,12.828-15.147c4.12-6.074,7.931-12.363,11.438-18.854c3.501-6.49,6.49-12.312,8.963-17.465
	c0.618-1.646,0.928-2.781,0.928-3.398c0-1.439-0.518-2.165-1.546-2.165c-1.652,0-2.89,1.033-3.708,3.09
	c-1.856,3.709-4.329,8.501-7.419,14.372c-3.09,5.876-6.49,11.698-10.201,17.466c-3.709,5.77-7.473,10.613-11.282,14.525
	c-3.813,3.918-7.37,5.873-10.662,5.873c-3.298,0-4.945-2.881-4.945-8.653c0-1.028,0.153-2.675,0.463-4.945
	c0.31-2.266,0.563-4.019,0.772-5.255c1.028-4.327,2.781-9.477,5.254-15.455c2.476-5.975,5.255-11.847,8.348-17.617
	c3.091-5.768,6.025-10.92,8.808-15.456c2.783-4.53,4.996-7.621,6.646-9.272c-2.474,0.415-4.846,0.309-7.109-0.31
	c-2.271-0.618-4.533-0.927-6.801-0.927c-4.944,0-8.762,1.854-11.436,5.564c-2.682,3.708-5.563,8.346-8.654,13.909
	c-4.536,8.244-8.965,15.973-13.292,23.183c-4.327,7.216-9.173,14.115-14.527,20.709c-7.834,9.07-15.363,13.602-21.545,13.602
	c-5.153,0-8.253-3.399-8.253-10.199c0-1.028,0-1.803,0-2.32c0-0.51,0.627-1.389,0.834-2.627c0.619-4.118,2.012-8.346,3.663-12.672
	c1.646-4.328,3.479-8.238,5.231-11.747c1.749-3.501,3.104-5.872,3.931-7.108c5.563-9.065,12.136-17.821,19.659-26.273
	c7.521-8.447,14.801-14.527,21.809-18.237c4.531-2.265,8.558-3.401,12.063-3.401c7.419,0,12.262,3.608,14.53,10.819
	c1.648,0.415,2.988,0.208,4.021-0.619c1.027-0.821,1.549-1.854,1.549-3.09c0-1.855-0.726-3.502-2.165-4.946
	c-3.298-3.501-7.108-6.027-11.438-7.573c-4.327-1.545-8.86-2.318-13.6-2.318c-8.245,0-16.645,2.217-25.192,6.646
	c-8.553,4.434-15.815,10.253-21.792,17.464c-9.271,11.336-15.971,22.255-20.091,32.764c-0.585,1.492-1.118,2.953-1.619,4.398
	c-0.611,1.155-1.252,2.359-1.936,3.637c-3.197,5.98-6.752,12.109-10.664,18.393c-3.917,6.288-7.936,11.592-12.056,15.919
	c-4.124,4.328-7.936,6.49-11.437,6.49c-1.444,0-2.781-0.565-4.018-1.699c-1.236-1.13-1.854-3.347-1.854-6.646
	c0-2.264,0.309-5.047,0.927-8.346c0.822-4.328,2.574-9.836,5.255-16.535c2.677-6.694,5.82-13.758,9.429-21.174
	c3.602-7.418,7.108-14.32,10.509-20.709c3.398-6.385,7.365-13.702,11.9-21.945c-0.618-0.203-1.651-0.31-3.092-0.31
	c-4.124,0-9.635,1.651-16.536,4.945c-6.906,3.299-13.808,7.216-20.71,11.747c-6.905,4.534-12.625,8.862-17.154,12.982
	c-4.124,3.506-8.346,7.626-12.672,12.364c-4.328,4.742-8.555,9.788-12.674,15.146c5.148-10.301,10.766-21.375,16.847-33.228
	c6.076-11.848,12.258-23.593,18.546-35.238c6.284-11.639,12.257-22.51,17.928-32.609c5.665-10.094,10.818-18.749,15.455-25.964
	c3.043-4.733,5.338-8.534,7.319-11.417l2.933-3.753c0,0,36.58-62.593,120.382-62.467c110.783,0.166,99.008,115.289,30.874,213.102
	C233,291,309.64,400,309.64,400s-29.527-122.771-5.104-136.756c9.456-4.76,49.388,15.273,56.977,7.947
	c12.104-11.688,2.854-27.713,4.104-36.467c1.252-8.756,11.535-3.351,13.135-8.131c1.732-5.185-9.232-5.88-8.757-9.177
	c0.43-2.965,8.133-0.088,9.794-5.407c1.576-5.049-10.146-15.086-10.146-22.049s18.723-2.668,22.203-9.979
	C395.327,172.672,369.17,132.768,370.215,126.371z"/>
</svg>
