<?xml version="1.0" encoding="utf-8"?>
<!-- Generator: Adobe Illustrator 16.0.0, SVG Export Plug-In . SVG Version: 6.00 Build 0)  -->
<!DOCTYPE svg PUBLIC "-//W3C//DTD SVG 1.1//EN" "http://www.w3.org/Graphics/SVG/1.1/DTD/svg11.dtd">
<svg version="1.1" id="Layer_1" xmlns="http://www.w3.org/2000/svg" xmlns:xlink="http://www.w3.org/1999/xlink" x="0px" y="0px"
	 width="600px" height="400px" viewBox="0 0 600 400" enable-background="new 0 0 600 400" xml:space="preserve">
<path fill="#FFFFFF" d="M598.793,242.557c-1.33-1.859-3.426-2.881-5.896-2.881c-1.635,0-3.972,0.649-5.832,3.742l-0.083,0.141
	l-0.071,0.146c-5.317,11.191-10.939,22.01-16.709,32.15c-5.709,10.021-10.842,17.9-15.255,23.422
	c-4.296,5.371-9.269,9.938-14.774,13.568c-4.722,3.104-9.745,4.834-14.958,5.147c6.065-5.136,11.291-11.351,15.595-18.556
	c5.965-9.992,8.988-19.666,8.988-28.75c0-9.244-1.895-18.024-5.633-26.104c-3.494-7.537-6.836-15.356-9.924-23.226
	c-1.348-3.488-2.516-7.543-3.47-12.061c-0.941-4.415-1.419-8.839-1.419-13.149c0-5.209,0.988-10.225,2.939-14.907
	c1.838-4.414,5.032-7.771,9.767-10.262l0.165-0.094c0.897-0.54,1.869-0.805,2.971-0.805c2.046,0,4.555,0.597,7.454,1.783
	c1.888,1.104,3.449,1.613,4.896,1.613c3.831,0,6.308-2.324,6.308-5.897c0-2.915-1.149-6.947-6.701-9.479
	c-2.229-0.954-4.433-1.425-6.563-1.755c-2.036-0.308-4.282-0.347-6.674-0.347h-4.514l-0.253-0.077
	c-8.206,1.264-15.717,6.12-22.326,14.423c-6.227,7.814-11.445,15.99-15.535,24.462c-5.651,12.146-11.867,24.833-18.474,37.767
	c-6.364,12.456-12.272,23.987-17.729,34.634c-4.837,0.941-8.998,4.244-12.396,9.857c-3.423,5.666-5.208,11.973-5.351,18.748
	c-3.713,4.992-7.52,9.41-11.375,13.174c-5.291,5.164-10.24,7.781-14.715,7.781c-1.217,0-2.299-0.431-3.409-1.36
	c-0.228-0.188-1.356-1.382-1.356-6.388c0-2.853,0.401-6.039,1.192-9.476l0.03-0.153c1.081-5.967,3.521-13.547,7.255-22.529
	c3.822-9.201,8.169-18.891,12.918-28.803c4.786-9.996,9.57-19.563,14.216-28.434c4.673-8.921,10.173-18.992,16.349-29.936
	l1.993-3.533l-3.854-1.263c-1.229-0.403-2.912-0.591-5.297-0.591c-5.946,0-13.514,2.193-23.133,6.703
	c-9.195,4.309-18.73,9.767-28.342,16.224c-9.573,6.427-17.927,12.746-24.776,18.742c-6.343,5.327-12.253,10.947-17.604,16.739
	c1.271-2.317,2.575-4.662,3.903-7.028c6.45-11.5,12.841-21.797,18.992-30.604c7.378-10.573,11.826-14.45,14.258-15.84l-2.708-6.041
	c-0.179,0.06-0.9,0.252-2.777,0.252c-2.248,0-4.527-0.316-6.78-0.943c-2.848-0.787-5.581-1.186-8.127-1.186
	c-7.455,0-13.504,2.434-17.979,7.236c-4.064,4.368-8.889,11.616-14.764,22.199c-5.388,10.005-10.753,20.375-16.055,31.005
	c-0.712,0.84-1.376,1.91-1.937,3.277c-2.52,5.037-5.928,11.639-10.131,19.626c-4.21,7.995-8.889,16.009-13.91,23.815
	c-4.969,7.729-10.06,14.289-15.131,19.496c-4.582,4.703-8.725,7.088-12.313,7.088c-2.314,0-3.489-2.893-3.489-8.601
	c0-1.258,0.205-3.399,0.609-6.366c0.425-3.115,0.762-5.414,1.03-7.029c1.369-5.717,3.74-12.678,7.053-20.684
	c3.349-8.093,7.17-16.16,11.357-23.98c4.218-7.865,8.27-14.975,12.042-21.125c3.688-6.006,6.605-10.1,8.675-12.168l7.356-7.356
	l-10.26,1.726c-1.172,0.197-2.337,0.297-3.465,0.297c-1.669,0-3.318-0.221-4.904-0.651c-3.396-0.925-6.842-1.396-10.243-1.396
	c-7.917,0-14.124,3.045-18.452,9.045c-3.741,5.179-7.818,11.738-12.138,19.511c-6.226,11.319-12.353,22.03-18.24,31.839
	c-5.844,9.746-12.46,19.217-19.655,28.074c-10.079,11.67-18.747,17.588-26.215,17.588c-2.378,0-7.036,0-7.036-10.729v-3.195
	c0-0.241-0.25-1.026,0.104-3.127c0.815-5.434,2.131-11.076,4.305-16.771c2.214-5.814,4.49-11.158,6.853-15.883
	c2.334-4.675,4.033-7.85,5.092-9.436l0.059-0.107c7.535-12.277,16.511-24.299,26.689-35.73
	c10.053-11.295,19.841-19.503,29.028-24.369c5.754-2.875,10.84-4.333,15.123-4.333c8.792,0,14.144,3.998,16.846,12.581l0.558,1.772
	l1.801,0.454c1.021,0.256,2.01,0.387,2.942,0.387c2.09,0,3.935-0.628,5.483-1.863c2.21-1.767,3.38-4.139,3.38-6.86
	c0-3.449-1.329-6.531-3.888-9.094c-4.892-5.193-10.632-8.991-17.062-11.288c-6.295-2.249-12.977-3.388-19.86-3.388
	c-11.842,0-24.035,3.206-36.243,9.53c-12.133,6.289-22.582,14.666-31.071,24.913c-12.944,15.822-22.436,31.313-28.207,46.041
	c-0.792,2.02-1.527,4.01-2.212,5.979c-0.803,1.516-1.637,3.084-2.523,4.742c-4.341,8.118-9.249,16.582-14.584,25.152
	c-5.246,8.421-10.694,15.621-16.196,21.398c-5.005,5.252-9.496,7.914-13.352,7.914c-1.153,0-2.198-0.467-3.293-1.474
	c-0.346-0.315-1.474-1.731-1.474-6.702c0-2.9,0.411-6.564,1.219-10.88c1.084-5.711,3.46-13.17,7.062-22.173
	c3.642-9.109,7.979-18.854,12.896-28.957c4.866-10.021,9.72-19.585,14.425-28.428c4.75-8.922,10.26-19.084,16.376-30.202
	l1.934-3.514l-3.812-1.25c-1.229-0.403-2.913-0.591-5.296-0.591c-6.231,0-14.153,2.336-24.22,7.14
	c-9.586,4.578-19.319,10.098-28.931,16.406c-9.6,6.306-17.678,12.418-24.009,18.172c-5.478,4.66-11.16,10.172-16.902,16.399
	c3.319-6.536,6.773-13.303,10.345-20.263c8.318-16.223,16.906-32.538,25.523-48.495c8.699-16.116,17.002-31.217,24.678-44.888
	c7.723-13.76,14.854-25.74,21.192-35.606c6.254-9.727,11.222-16.593,14.762-20.406l6.809-7.336l-9.845,1.802
	c-1.045,0.191-2.127,0.288-3.215,0.288c-1.658,0-3.399-0.226-5.176-0.669c-3.654-0.914-6.936-1.377-9.751-1.377
	c-7.804,0-14.173,2.83-18.93,8.41c-4.247,4.979-8.882,11.89-13.813,20.595c-13.246,24.511-26.877,50.768-40.513,78.039
	c-13.629,27.257-27.035,54.571-39.846,81.185C23.767,281.712,11.579,306.855,0,330.563l5.122,4.012
	c1.146-0.957,2.598-1.473,4.444-1.574c2.595-0.148,5.21-0.365,7.777-0.646c3.93-0.281,7.092-0.485,9.476-0.631
	c3.633-0.211,6.773-2.732,9.376-7.568c11.771-23.256,22.965-41.547,33.273-54.361c10.372-12.895,19.159-22.82,26.121-29.502
	c7.171-6.893,13.125-11.75,17.696-14.438c5.345-3.142,8.288-3.802,9.814-3.802c1.568,0,1.785,0.218,1.785,1.784
	c0,1.527-0.659,4.471-3.792,9.803c-6.236,10.484-11.405,19.314-15.361,26.242c-4.079,7.135-7.045,13.745-8.806,19.609
	c-1.461,4.664-2.501,8.906-3.092,12.605c-0.593,3.684-0.895,7.229-0.895,10.537c0,11.641,3.509,19.881,10.425,24.489
	c6.484,4.329,12.98,6.522,19.31,6.522c8.667,0,16.876-2.957,24.399-8.791c7.185-5.567,13.866-12.766,19.86-21.388
	c0.871-1.254,1.707-2.542,2.555-3.819c0.774,8.59,3.129,15.879,7.083,21.682c5.174,7.607,12.118,11.465,20.64,11.465
	c4.455,0,9.375-1.252,14.62-3.723c5.117-2.408,10.568-6.336,16.215-11.682c6.391-6.104,12.415-13.228,17.903-21.17
	c1.352-1.96,2.645-3.846,3.875-5.656c-0.378,3.099-0.567,5.99-0.567,8.662c0,8.861,1.688,15.924,5.017,20.992
	c3.333,5.08,7.339,8.646,11.906,10.602c3.803,1.633,7.371,2.459,10.604,2.459c0.561,0,1.111-0.023,1.658-0.072
	c5.41-0.495,10.777-2.65,16.014-6.408c-0.615,1.25-1.226,2.506-1.84,3.756l5.115,4.021c1.146-0.957,2.598-1.473,4.445-1.574
	c2.619-0.148,5.389-0.368,8.127-0.641c4.437-0.299,7.766-0.582,10.17-0.866c3.543-0.412,6.62-2.999,9.165-7.726
	c12.62-24.117,23.901-42.574,33.53-54.859c9.671-12.329,18.091-21.958,25.031-28.618c7.156-6.88,13.17-11.729,17.873-14.418
	c5.821-3.324,8.536-3.821,9.638-3.821c1.07,0,1.358,0,1.358,1.784c0,0.591-0.093,1.669-0.54,3.452
	c-0.23,0.924-0.974,2.76-3.214,6.285c-7.13,11.404-12.349,20.545-15.513,27.162c-3.143,6.563-5.895,12.791-8.184,18.517
	l-0.065,0.181c-1.47,4.399-2.518,8.521-3.108,12.236c-0.594,3.684-0.895,7.229-0.895,10.54c0,11.94,3.59,20.331,10.667,24.935
	c6.616,4.314,13.174,6.504,19.492,6.504c8.984,0,17.432-3.192,25.108-9.486c3.749-3.073,7.361-6.559,10.817-10.416
	c1.384,2.65,3.093,5.255,5.137,7.797c6.453,8.033,17.285,12.105,32.195,12.105c2.782,0,5.834-0.39,9.069-1.154
	c2.721-0.645,5.433-1.477,8.08-2.48c2.4,0.725,4.813,1.225,7.185,1.484c2.646,0.296,5.207,0.445,7.611,0.445
	c10.283,0,19.723-2.842,28.051-8.445c8.106-5.454,15.346-12.613,21.511-21.275c6.029-8.465,11.489-17.492,16.229-26.83
	c4.646-9.15,8.893-17.855,12.614-25.873l0.072-0.168C600.371,246.896,600.162,244.49,598.793,242.557z M476.19,316.262
	c-2.346-2.814-3.487-6.019-3.487-9.796c0-3.067,0.709-5.989,2.152-8.821c1.064,5.121,2.774,9.588,5.111,13.344
	c2.139,3.447,4.515,6.496,7.1,9.117c-0.483,0.047-0.985,0.071-1.504,0.071C481.446,320.178,478.383,318.896,476.19,316.262z
	 M486.754,285.341c0.328-6.354-0.429-10.504-2.395-13.065c-1.08-1.399-2.484-2.469-4.175-3.228
	c3.451-6.677,6.519-12.59,9.204-17.743c0.573-1.146,0.984-2.263,1.257-3.353c4.66-9.07,9.4-18.623,14.102-28.431
	c2.015-4.209,3.931-8.207,5.747-11.996c0.381,8.306,1.489,17.543,3.313,27.552c2.226,12.257,3.354,23.95,3.354,34.759
	c0,11.915-1.815,21.59-5.397,28.754c-3.178,6.354-6.726,11.391-10.563,15.001c-3.9-2.12-7.255-5.571-9.995-10.288
	C487.993,297.787,486.496,291.73,486.754,285.341z"/>
</svg>
